<svg xmlns="http://www.w3.org/2000/svg" viewBox="0 0 358.631 75.466">
  <g fill="red">
    <path d="M193.39 0h-25.85v74.9h14.7V41.15l24.75 33.75h17.9l-27.25-36.75c7.65-1.1 12.1-6.45 12.1-14.4 0-8.4-6.1-13.85-15.6-13.85h-16.1v18.7h4.2V14.1h11.9c6.95 0 11.4 3.35 11.4 9.65 0 5.6-2.65 10.55-11.9 10.55h-4.1l27 36.4h-7.4l-26.75-36.4h-4.35v36.4h-6.3V4.2h21.65c13.7 0 22.65 7.5 22.65 19.55 0 7.5-2.9 13.35-9.2 17.05l2.45 3.35c7-3.95 10.95-11.3 10.95-20.4 0-13.3-9.6-23.75-26.85-23.75zM252.36 60.8V32.75h25.6v5.7h-19.3v4.2h23.5v-14.1h-34V65h31.65v5.7h-37.95V4.2h37.25v5.7h-30.95v12.95h4.2V14.1h30.95V0h-45.65v74.9h46.35V60.8h-31.65zM325.13 0h-23.6v4.2h23.6c20.2 0 29.3 14.25 29.3 33.2 0 20.2-11.75 33.3-30 33.3h-18.7V14.1h19.4c11.95 0 18.8 8.25 18.8 23.3 0 14.05-7.4 23.4-18.8 23.4h-8.9V19.75h-4.2V65h13.1c13.75 0 23-11.1 23-27.6 0-17.25-8.6-27.5-22.95-27.5h-23.65v65h22.9c20.5 0 34.2-14.95 34.2-37.5 0-24.05-13.35-37.4-33.5-37.4z"/>
  </g>
  <g fill="#555">
    <path d="M10.17 22.91q-2.246 0-4.121-.684-1.875-.703-3.223-2.109-1.347-1.406-2.09-3.535-.742-2.149-.742-5.04 0-2.87.762-4.96.781-2.09 2.07-3.516Q4.116 1.64 6.03.88 7.963.097 10.17.097q1.797 0 3.457.508 1.68.508 2.988 1.172v4.121H16.4q-.39-.332-1.015-.761-.606-.43-1.485-.88-.761-.39-1.796-.683t-1.993-.293q-2.851 0-4.59 2.168-1.718 2.148-1.718 6.094 0 3.867 1.66 6.035 1.68 2.148 4.648 2.148 1.797 0 3.418-.742T16.4 17.07h.215v4.121q-.547.254-1.367.625-.82.352-1.484.528-.938.273-1.68.41-.742.156-1.914.156zM38.73 27.65h-3.418v-5.293H20.937v5.293h-3.418v-8.36h1.445q1.856-3.046 3.028-7.949Q23.183 6.42 23.183.6h13.379V19.29h2.168v8.36zm-5.84-8.36V3.687h-6.25q-.254 4.882-1.347 8.925-1.075 4.024-2.715 6.68H32.89zM51.83 22.93q-5.215 0-8.105-2.93-2.872-2.949-2.872-8.36 0-5.331 2.793-8.476Q46.44 0 50.951 0q2.031 0 3.594.586 1.562.586 2.734 1.836t1.797 3.066q.625 1.797.625 4.415v1.992H44.584q0 3.808 1.914 5.82t5.293 2.012q1.211 0 2.364-.274 1.172-.273 2.109-.703.996-.449 1.68-.86.683-.429 1.133-.8h.214v4.004q-.644.254-1.601.644-.957.372-1.72.586-1.073.293-1.952.45-.86.156-2.188.156zm4.3-13.85q-.04-1.484-.352-2.559-.312-1.074-.898-1.816-.645-.82-1.66-1.25-.996-.43-2.48-.43-1.465 0-2.5.45-1.016.43-1.856 1.269-.82.86-1.25 1.914-.43 1.035-.547 2.422H56.13zM80.35 22.42h-3.672V3.69h-7.5q-.058 1.621-.117 3.125-.059 1.484-.117 2.695-.117 3.067-.41 5.137-.274 2.07-.704 3.32-.43 1.29-.957 2.012-.507.723-1.152 1.309-.664.586-1.426.879-.762.292-1.719.292-.312 0-.8-.019t-.684-.02v-3.203h.195q.137 0 .274.02.156.02.351.02.47 0 .918-.137t.801-.508q.977-.957 1.426-3.34.45-2.402.644-6.7.079-1.6.137-3.788.078-2.188.137-4.18H80.35V22.42zM97.83 17.05v-6.055q-1.309.117-3.32.332-1.992.196-3.223.567-1.465.449-2.422 1.386-.957.918-.957 2.579 0 1.875 1.055 2.832 1.054.957 3.086.957 1.738 0 3.144-.743 1.406-.761 2.637-1.855zm0 3.047q-.45.332-1.21.937-.743.586-1.446.938-.977.508-1.895.781-.898.274-2.539.274-1.347 0-2.558-.508-1.211-.508-2.13-1.426-.878-.898-1.405-2.207-.528-1.328-.528-2.793 0-2.266.957-3.848.957-1.601 3.028-2.539 1.835-.84 4.335-1.152 2.5-.332 5.391-.488v-.703q0-1.29-.39-2.07-.391-.802-1.094-1.231-.703-.45-1.72-.586-1.015-.156-2.089-.156-1.27 0-2.988.39-1.719.371-3.438 1.094h-.215v-3.73q1.016-.293 2.91-.645 1.895-.352 3.75-.352 2.247 0 3.79.352t2.773 1.27q1.192.898 1.777 2.324.586 1.425.586 3.476v14.922H97.83v-2.324zM123.81 22.42h-3.672v-9.824h-9.883v9.824h-3.672V.604h3.672v8.828h9.883V.604h3.672V22.42zM147.11 11.52q0 5.508-2.656 8.516-2.656 2.988-7.07 2.988-4.551 0-7.169-3.086-2.597-3.106-2.597-8.418 0-5.469 2.676-8.496 2.695-3.028 7.09-3.028 4.413 0 7.07 3.028 2.656 3.008 2.656 8.496zm-3.79 0q0-4.238-1.542-6.29-1.543-2.07-4.395-2.07-2.87 0-4.433 2.07-1.543 2.052-1.543 6.29 0 4.102 1.543 6.23 1.562 2.11 4.433 2.11 2.832 0 4.375-2.07 1.563-2.09 1.563-6.27z"/>
  </g>
  <g fill="red">
    <path d="M30.61 56.34V44.504h3.594v30.391H30.61v-3.281q-1.133 1.953-2.871 2.91-1.719.937-4.14.937-3.966 0-6.466-3.164-2.48-3.164-2.48-8.32t2.48-8.32q2.5-3.164 6.465-3.164 2.422 0 4.14.957 1.74.937 2.872 2.89zm-12.246 7.637q0 3.964 1.621 6.23 1.64 2.246 4.492 2.246t4.492-2.246q1.641-2.265 1.641-6.23 0-3.965-1.64-6.211-1.641-2.266-4.493-2.266t-4.492 2.266q-1.621 2.246-1.621 6.21zM60.32 63.06v1.758H43.797q.234 3.71 2.227 5.664 2.011 1.934 5.586 1.934 2.07 0 4.003-.508 1.954-.508 3.868-1.524v3.399q-1.934.82-3.965 1.25-2.031.43-4.121.43-5.235 0-8.301-3.048-3.047-3.046-3.047-8.242 0-5.37 2.89-8.515 2.91-3.164 7.833-3.164 4.414 0 6.972 2.851 2.578 2.832 2.578 7.715zm-3.594-1.055q-.039-2.949-1.66-4.707-1.602-1.757-4.258-1.757-3.008 0-4.824 1.699-1.797 1.699-2.07 4.785l12.812-.02zM63.56 53.02h3.809l6.835 18.359L81.04 53.02h3.809l-8.203 21.875h-4.883L63.56 53.02zM89.81 44.51h3.594v30.391H89.81V44.51zM110.85 63.9q-4.356 0-6.035.996-1.68.996-1.68 3.398 0 1.915 1.25 3.047 1.27 1.114 3.438 1.114 2.988 0 4.785-2.11 1.816-2.129 1.816-5.644V63.9h-3.574zm7.168-1.484v12.48h-3.594v-3.32q-1.23 1.991-3.066 2.948-1.836.938-4.492.938-3.36 0-5.352-1.875-1.973-1.895-1.973-5.059 0-3.691 2.461-5.566 2.48-1.875 7.383-1.875h5.04v-.352q0-2.48-1.641-3.828-1.622-1.367-4.57-1.367-1.876 0-3.653.45-1.777.449-3.418 1.347v-3.32q1.973-.762 3.828-1.133 1.856-.39 3.613-.39 4.746 0 7.09 2.46 2.344 2.461 2.344 7.461zM141.22 63.98q0-3.965-1.64-6.21-1.622-2.266-4.473-2.266t-4.493 2.265q-1.62 2.246-1.62 6.211t1.62 6.23q1.641 2.247 4.493 2.247t4.472-2.246q1.641-2.266 1.641-6.231zm-12.227-7.637q1.133-1.953 2.852-2.89 1.738-.957 4.14-.957 3.985 0 6.465 3.164 2.5 3.164 2.5 8.32t-2.5 8.32q-2.48 3.164-6.465 3.164-2.402 0-4.14-.937-1.72-.957-2.852-2.91v3.281h-3.613V44.507h3.613v11.836zM151.41 69.93h4.121v4.96h-4.121v-4.96z"/>
  </g>
</svg>
